<svg xmlns="http://www.w3.org/2000/svg" xmlns:xlink="http://www.w3.org/1999/xlink" width="40" zoomAndPan="magnify" viewBox="0 0 30 30.000001" height="40" preserveAspectRatio="xMidYMid meet" version="1.0"><defs><clipPath id="ae73eb5f2a"><path d="M 0.484375 0 L 29.515625 0 L 29.515625 29.03125 L 0.484375 29.03125 Z M 0.484375 0 " clip-rule="nonzero"/></clipPath><clipPath id="0d3d94f384"><path d="M 1.828125 1.34375 L 27.957031 1.34375 L 27.957031 27.472656 L 1.828125 27.472656 Z M 1.828125 1.34375 " clip-rule="nonzero"/></clipPath></defs><g clip-path="url(#ae73eb5f2a)"><path fill="#5170ff" d="M 15 2.902344 C 21.414062 2.902344 26.613281 8.101562 26.613281 14.515625 C 26.613281 16.355469 26.1875 18.09375 25.425781 19.636719 C 25.21875 20.0625 25.140625 20.558594 25.242188 21.050781 L 26.207031 25.757812 L 21.3125 24.839844 C 20.84375 24.753906 20.371094 24.824219 19.964844 25.015625 C 18.460938 25.730469 16.78125 26.128906 15 26.128906 C 8.585938 26.128906 3.386719 20.929688 3.386719 14.515625 C 3.386719 8.101562 8.585938 2.902344 15 2.902344 Z M 29.515625 14.515625 C 29.515625 6.5 23.015625 0 15 0 C 6.984375 0 0.484375 6.5 0.484375 14.515625 C 0.484375 22.53125 6.984375 29.03125 15 29.03125 C 17.136719 29.03125 19.171875 28.570312 21.003906 27.734375 L 26.734375 28.808594 C 28.257812 29.09375 29.582031 27.746094 29.269531 26.230469 L 28.136719 20.703125 C 29.019531 18.824219 29.515625 16.726562 29.515625 14.515625 Z M 29.515625 14.515625 " fill-opacity="1" fill-rule="evenodd"/></g><path fill="#5170ff" d="M 4.839844 14.515625 C 4.839844 12.914062 6.136719 11.613281 7.742188 11.613281 C 9.34375 11.613281 10.644531 12.914062 10.644531 14.515625 C 10.644531 16.121094 9.34375 17.417969 7.742188 17.417969 C 6.136719 17.417969 4.839844 16.121094 4.839844 14.515625 Z M 4.839844 14.515625 " fill-opacity="1" fill-rule="evenodd"/><path fill="#5170ff" d="M 12.097656 14.515625 C 12.097656 12.914062 13.398438 11.613281 15 11.613281 C 16.601562 11.613281 17.902344 12.914062 17.902344 14.515625 C 17.902344 16.121094 16.601562 17.417969 15 17.417969 C 13.398438 17.417969 12.097656 16.121094 12.097656 14.515625 Z M 12.097656 14.515625 " fill-opacity="1" fill-rule="evenodd"/><path fill="#5170ff" d="M 19.355469 14.515625 C 19.355469 12.914062 20.65625 11.613281 22.257812 11.613281 C 23.863281 11.613281 25.160156 12.914062 25.160156 14.515625 C 25.160156 16.121094 23.863281 17.417969 22.257812 17.417969 C 20.65625 17.417969 19.355469 16.121094 19.355469 14.515625 Z M 19.355469 14.515625 " fill-opacity="1" fill-rule="evenodd"/><g clip-path="url(#0d3d94f384)"><path fill="#5ce1e6" d="M 15 3.976562 C 20.820312 3.976562 25.535156 8.695312 25.535156 14.515625 C 25.535156 16.183594 25.148438 17.761719 24.460938 19.160156 C 24.269531 19.546875 24.203125 19.996094 24.292969 20.445312 L 25.167969 24.714844 L 20.726562 23.882812 C 20.300781 23.804688 19.875 23.867188 19.503906 24.042969 C 18.140625 24.691406 16.613281 25.054688 15 25.054688 C 9.179688 25.054688 4.460938 20.335938 4.460938 14.515625 C 4.460938 8.695312 9.179688 3.976562 15 3.976562 Z M 28.171875 14.515625 C 28.171875 7.238281 22.273438 1.34375 15 1.34375 C 7.722656 1.34375 1.828125 7.238281 1.828125 14.515625 C 1.828125 21.789062 7.722656 27.6875 15 27.6875 C 16.9375 27.6875 18.785156 27.265625 20.445312 26.511719 L 25.648438 27.484375 C 27.027344 27.742188 28.230469 26.519531 27.945312 25.144531 L 26.917969 20.128906 C 27.722656 18.425781 28.171875 16.519531 28.171875 14.515625 Z M 28.171875 14.515625 " fill-opacity="1" fill-rule="evenodd"/></g><path fill="#5ce1e6" d="M 5.777344 14.515625 C 5.777344 13.058594 6.957031 11.878906 8.414062 11.878906 C 9.867188 11.878906 11.046875 13.058594 11.046875 14.515625 C 11.046875 15.96875 9.867188 17.148438 8.414062 17.148438 C 6.957031 17.148438 5.777344 15.96875 5.777344 14.515625 Z M 5.777344 14.515625 " fill-opacity="1" fill-rule="evenodd"/><path fill="#5ce1e6" d="M 12.363281 14.515625 C 12.363281 13.058594 13.542969 11.878906 15 11.878906 C 16.453125 11.878906 17.632812 13.058594 17.632812 14.515625 C 17.632812 15.96875 16.453125 17.148438 15 17.148438 C 13.542969 17.148438 12.363281 15.96875 12.363281 14.515625 Z M 12.363281 14.515625 " fill-opacity="1" fill-rule="evenodd"/><path fill="#5ce1e6" d="M 18.949219 14.515625 C 18.949219 13.058594 20.128906 11.878906 21.585938 11.878906 C 23.039062 11.878906 24.21875 13.058594 24.21875 14.515625 C 24.21875 15.96875 23.039062 17.148438 21.585938 17.148438 C 20.128906 17.148438 18.949219 15.96875 18.949219 14.515625 Z M 18.949219 14.515625 " fill-opacity="1" fill-rule="evenodd"/></svg>