<svg xmlns="http://www.w3.org/2000/svg" xmlns:xlink="http://www.w3.org/1999/xlink" width="2048" zoomAndPan="magnify" viewBox="0 0 1536 319.499995" height="426" preserveAspectRatio="xMidYMid meet" version="1.0"><defs><g/><clipPath id="c1a1a831b2"><path d="M 1.199219 0 L 320.199219 0 L 320.199219 319 L 1.199219 319 Z M 1.199219 0 " clip-rule="nonzero"/></clipPath><clipPath id="508611f17a"><path d="M 13.582031 12.382812 L 307.875 12.382812 L 307.875 306.671875 L 13.582031 306.671875 Z M 13.582031 12.382812 " clip-rule="nonzero"/></clipPath></defs><g fill="#ffffff" fill-opacity="1"><g transform="translate(388.203725, 252.41255)"><g><path d="M 19.644531 -31.191406 C 26.875 -28.875 34.898438 -27.71875 43.714844 -27.71875 C 52.675781 -27.71875 59.113281 -29.492188 63.023438 -33.039062 C 66.679688 -36.351562 68.503906 -41.78125 68.503906 -49.332031 L 68.503906 -133.34375 C 68.503906 -138.804688 70.457031 -143.488281 74.363281 -147.390625 L 80.835938 -140.917969 L 74.109375 -147.128906 C 77.875 -151.210938 82.558594 -153.25 88.164062 -153.25 C 93.625 -153.25 98.304688 -151.296875 102.210938 -147.390625 C 106.117188 -143.488281 108.070312 -138.804688 108.070312 -133.34375 L 108.070312 -48.355469 C 108.070312 -38.980469 106.527344 -30.632812 103.445312 -23.308594 C 100.34375 -15.953125 96.546875 -10.125 92.046875 -5.832031 L 91.898438 -5.691406 C 87.347656 -1.535156 81.960938 1.804688 75.738281 4.332031 C 69.921875 6.695312 64.816406 8.257812 60.425781 9.023438 L 58.859375 0 L 60.726562 8.964844 C 56.3125 9.886719 51.652344 10.4375 46.742188 10.617188 L 46.570312 10.625 L 46.402344 10.625 C 29.980469 10.625 16.570312 8.023438 6.160156 2.820312 L 5.753906 2.613281 L 5.367188 2.371094 C 2.542969 0.585938 0.367188 -1.632812 -1.160156 -4.285156 C -2.746094 -7.039062 -3.542969 -10.089844 -3.542969 -13.433594 C -3.542969 -18.566406 -1.75 -22.921875 1.828125 -26.503906 C 5.40625 -30.082031 9.761719 -31.871094 14.898438 -31.871094 C 16.703125 -31.871094 18.320312 -31.632812 19.746094 -31.15625 Z M 13.957031 -13.78125 C 14.285156 -13.671875 14.585938 -13.597656 14.859375 -13.5625 L 14.898438 -13.554688 C 14.820312 -13.554688 14.78125 -13.554688 14.78125 -13.550781 C 14.777344 -13.546875 14.777344 -13.507812 14.777344 -13.433594 C 14.777344 -13.339844 14.777344 -13.28125 14.785156 -13.253906 C 14.773438 -13.308594 14.746094 -13.363281 14.714844 -13.421875 L 14.703125 -13.453125 C 14.800781 -13.351562 14.949219 -13.242188 15.148438 -13.117188 L 10.257812 -5.371094 L 14.351562 -13.566406 C 22.179688 -9.648438 32.863281 -7.691406 46.402344 -7.691406 L 46.402344 1.464844 L 46.0625 -7.6875 C 49.945312 -7.832031 53.585938 -8.257812 56.988281 -8.964844 L 57.136719 -8.996094 L 57.289062 -9.023438 C 60.386719 -9.5625 64.238281 -10.765625 68.84375 -12.636719 C 73.039062 -14.34375 76.609375 -16.535156 79.546875 -19.21875 L 85.722656 -12.457031 L 79.398438 -19.082031 C 82.0625 -21.621094 84.449219 -25.402344 86.5625 -30.417969 C 88.6875 -35.46875 89.75 -41.449219 89.75 -48.355469 L 89.75 -133.34375 C 89.75 -133.746094 89.585938 -134.113281 89.257812 -134.441406 C 88.929688 -134.769531 88.566406 -134.933594 88.164062 -134.933594 C 87.90625 -134.933594 87.707031 -134.855469 87.566406 -134.703125 L 87.441406 -134.570312 L 87.3125 -134.441406 C 86.984375 -134.113281 86.820312 -133.746094 86.820312 -133.34375 L 86.820312 -49.332031 C 86.820312 -36.371094 82.988281 -26.414062 75.328125 -19.46875 C 67.925781 -12.757812 57.386719 -9.402344 43.714844 -9.402344 C 32.992188 -9.402344 23.109375 -10.851562 14.058594 -13.746094 Z M 13.957031 -13.78125 "/></g></g></g><g fill="#ffffff" fill-opacity="1"><g transform="translate(502.988274, 252.41255)"><g><path d="M 60.078125 10.625 C 55.285156 10.625 50.503906 10.050781 45.730469 8.90625 L 47.867188 0 L 46.136719 8.992188 C 40.945312 7.996094 35.726562 6.039062 30.476562 3.121094 C 25.078125 0.230469 20.316406 -3.472656 16.195312 -7.988281 C 11.949219 -12.636719 8.480469 -18.710938 5.789062 -26.210938 C 3.152344 -33.375 1.832031 -41.488281 1.832031 -50.554688 C 1.832031 -69.515625 8.046875 -84.226562 20.480469 -94.683594 C 32.285156 -104.585938 45.484375 -109.535156 60.078125 -109.535156 C 74.648438 -109.535156 87.90625 -104.601562 99.855469 -94.738281 C 112.167969 -84.214844 118.324219 -69.484375 118.324219 -50.554688 C 118.324219 -41.488281 117 -33.347656 114.34375 -26.140625 C 111.667969 -18.6875 108.207031 -12.636719 103.964844 -7.988281 C 99.871094 -3.507812 95.191406 0.195312 89.925781 3.121094 C 84.488281 6.035156 79.289062 7.988281 74.332031 8.980469 L 72.535156 0 L 74.59375 8.925781 C 69.683594 10.058594 64.84375 10.625 60.078125 10.625 Z M 60.078125 -7.691406 C 63.453125 -7.691406 66.917969 -8.101562 70.476562 -8.925781 L 70.605469 -8.953125 L 70.738281 -8.980469 C 73.921875 -9.617188 77.351562 -10.921875 81.03125 -12.890625 C 84.554688 -14.847656 87.691406 -17.332031 90.4375 -20.339844 C 93.03125 -23.183594 95.269531 -27.226562 97.15625 -32.472656 C 99.058594 -37.636719 100.007812 -43.664062 100.007812 -50.554688 C 100.007812 -63.859375 96.070312 -73.878906 88.195312 -80.613281 C 79.628906 -87.683594 70.257812 -91.21875 60.078125 -91.21875 C 49.925781 -91.21875 40.65625 -87.699219 32.273438 -80.667969 C 24.191406 -73.867188 20.148438 -63.832031 20.148438 -50.554688 C 20.148438 -43.664062 21.109375 -37.613281 23.027344 -32.402344 C 24.894531 -27.203125 27.125 -23.183594 29.71875 -20.339844 C 32.433594 -17.367188 35.652344 -14.882812 39.371094 -12.890625 C 42.914062 -10.921875 46.324219 -9.625 49.597656 -8.992188 L 49.800781 -8.953125 L 50.003906 -8.90625 C 53.371094 -8.097656 56.730469 -7.691406 60.078125 -7.691406 Z M 60.078125 -27.71875 C 66.605469 -27.71875 71.28125 -29.3125 74.097656 -32.5 C 77.207031 -36.019531 78.761719 -41.875 78.761719 -50.066406 C 78.761719 -57.894531 77.027344 -63.339844 73.558594 -66.398438 L 79.617188 -73.265625 L 73.773438 -66.214844 C 69.769531 -69.53125 65.203125 -71.191406 60.078125 -71.191406 C 55.003906 -71.191406 50.550781 -69.558594 46.730469 -66.296875 C 43.171875 -63.25 41.394531 -57.839844 41.394531 -50.066406 C 41.394531 -41.875 42.949219 -36.019531 46.058594 -32.5 C 48.878906 -29.3125 53.550781 -27.71875 60.078125 -27.71875 Z M 60.078125 -9.402344 C 48.046875 -9.402344 38.796875 -13.058594 32.335938 -20.371094 C 26.164062 -27.355469 23.078125 -37.253906 23.078125 -50.066406 C 23.078125 -63.457031 27 -73.511719 34.84375 -80.234375 C 42.089844 -86.417969 50.5 -89.507812 60.078125 -89.507812 C 69.605469 -89.507812 78.066406 -86.445312 85.460938 -80.320312 L 85.570312 -80.226562 L 85.675781 -80.132812 C 93.277344 -73.425781 97.078125 -63.402344 97.078125 -50.066406 C 97.078125 -37.253906 93.992188 -27.355469 87.824219 -20.371094 C 81.359375 -13.058594 72.113281 -9.402344 60.078125 -9.402344 Z M 60.078125 -9.402344 "/></g></g></g><g fill="#ffffff" fill-opacity="1"><g transform="translate(621.92456, 252.41255)"><g><path d="M 13.667969 19.183594 C 16.414062 19.035156 18.542969 18.4375 20.054688 17.386719 C 21.386719 16.460938 22.414062 15 23.136719 13.003906 L 28.746094 -2.609375 L 37.367188 0.488281 L 28.773438 3.65625 C 25.363281 -5.59375 20.003906 -19.808594 12.691406 -38.988281 L -3.214844 -80.734375 L -3.363281 -81.484375 C -3.96875 -84.519531 -4.273438 -86.664062 -4.273438 -87.921875 C -4.273438 -93.25 -2.398438 -97.929688 1.347656 -101.96875 C 5.101562 -106.035156 9.78125 -108.070312 15.386719 -108.070312 C 20.058594 -108.070312 24.09375 -106.832031 27.488281 -104.363281 C 30.835938 -101.929688 33.273438 -98.496094 34.792969 -94.074219 L 57.226562 -31.160156 L 48.601562 -28.085938 L 40.140625 -31.59375 L 66.273438 -94.605469 L 74.730469 -91.09375 L 66.070312 -94.074219 C 67.59375 -98.496094 70.027344 -101.929688 73.375 -104.363281 C 76.773438 -106.832031 80.804688 -108.070312 85.476562 -108.070312 C 90.9375 -108.070312 95.621094 -106.117188 99.523438 -102.210938 L 99.773438 -101.960938 L 100.003906 -101.695312 C 103.425781 -97.703125 105.136719 -93.109375 105.136719 -87.921875 C 105.136719 -86.664062 104.835938 -84.519531 104.226562 -81.484375 L 104.042969 -80.566406 L 57.277344 29.707031 C 52.789062 40.4375 47.355469 47.78125 40.976562 51.742188 C 34.5625 55.589844 27.253906 57.515625 19.050781 57.515625 L 14.164062 57.515625 C 9.03125 57.515625 4.59375 55.644531 0.851562 51.902344 L 7.328125 45.425781 L 1.113281 52.15625 C -2.964844 48.386719 -5.007812 43.785156 -5.007812 38.34375 C -5.007812 32.902344 -2.964844 28.296875 1.113281 24.53125 L 7.328125 31.261719 L 0.851562 24.785156 C 4.59375 21.042969 9.03125 19.171875 14.164062 19.171875 L 14.164062 28.328125 Z M 14.664062 37.476562 L 14.414062 37.488281 L 14.164062 37.488281 C 14.089844 37.488281 13.96875 37.570312 13.800781 37.738281 L 13.671875 37.867188 L 13.539062 37.988281 C 13.386719 38.128906 13.308594 38.25 13.308594 38.34375 C 13.308594 38.4375 13.386719 38.554688 13.539062 38.695312 L 13.671875 38.820312 L 13.800781 38.949219 C 13.96875 39.113281 14.089844 39.199219 14.164062 39.199219 L 19.050781 39.199219 C 23.871094 39.199219 27.960938 38.191406 31.316406 36.179688 C 34.378906 34.277344 37.410156 29.738281 40.414062 22.554688 L 86.816406 -86.855469 L 95.246094 -83.28125 L 86.265625 -85.074219 C 86.484375 -86.175781 86.648438 -87.050781 86.75 -87.699219 C 86.789062 -87.949219 86.816406 -88.140625 86.832031 -88.273438 C 86.824219 -88.214844 86.820312 -88.09375 86.820312 -87.921875 C 86.820312 -88.59375 86.578125 -89.210938 86.09375 -89.773438 L 93.050781 -95.734375 L 86.574219 -89.257812 C 86.246094 -89.585938 85.878906 -89.75 85.476562 -89.75 C 84.777344 -89.75 84.332031 -89.683594 84.148438 -89.550781 C 83.914062 -89.378906 83.664062 -88.902344 83.394531 -88.117188 L 83.300781 -87.847656 L 47.957031 -2.625 L 17.472656 -88.117188 C 17.203125 -88.902344 16.949219 -89.378906 16.714844 -89.550781 C 16.53125 -89.683594 16.085938 -89.75 15.386719 -89.75 C 15.128906 -89.75 14.921875 -89.667969 14.769531 -89.503906 C 14.285156 -88.980469 14.042969 -88.453125 14.042969 -87.921875 C 14.042969 -88.09375 14.039062 -88.214844 14.03125 -88.273438 C 14.046875 -88.140625 14.074219 -87.949219 14.113281 -87.699219 C 14.214844 -87.050781 14.378906 -86.175781 14.597656 -85.074219 L 5.617188 -83.28125 L 14.175781 -86.539062 L 29.804688 -45.515625 C 37.144531 -26.269531 42.527344 -11.992188 45.960938 -2.675781 L 47.113281 0.449219 L 40.363281 19.234375 C 38.316406 24.890625 35.027344 29.289062 30.5 32.433594 C 26.148438 35.457031 20.871094 37.136719 14.664062 37.476562 Z M 14.664062 37.476562 "/></g></g></g><g fill="#ffffff" fill-opacity="1"><g transform="translate(722.788444, 252.41255)"><g/></g></g><g fill="#ffffff" fill-opacity="1"><g transform="translate(771.388707, 252.41255)"><g><path d="M 7.203125 -124.796875 C 7.203125 -129.953125 8.992188 -134.464844 12.5625 -138.335938 L 12.6875 -138.472656 L 12.816406 -138.601562 C 16.558594 -142.34375 21.078125 -144.214844 26.375 -144.214844 C 31.53125 -144.214844 36.042969 -142.425781 39.914062 -138.855469 L 40.183594 -138.605469 L 40.433594 -138.335938 C 44.003906 -134.464844 45.792969 -129.953125 45.792969 -124.796875 C 45.792969 -119.5 43.921875 -114.980469 40.179688 -111.238281 L 40.050781 -111.109375 L 39.914062 -110.984375 C 36.042969 -107.414062 31.53125 -105.625 26.375 -105.625 C 21.078125 -105.625 16.558594 -107.496094 12.816406 -111.238281 C 9.074219 -114.980469 7.203125 -119.5 7.203125 -124.796875 Z M 25.519531 -124.796875 C 25.519531 -124.558594 25.605469 -124.355469 25.769531 -124.191406 C 25.933594 -124.027344 26.136719 -123.941406 26.375 -123.941406 C 26.757812 -123.941406 27.128906 -124.109375 27.492188 -124.445312 L 33.703125 -117.714844 L 27.226562 -124.191406 C 27.390625 -124.355469 27.476562 -124.558594 27.476562 -124.796875 C 27.476562 -125.179688 27.308594 -125.550781 26.972656 -125.914062 L 33.703125 -132.125 L 27.492188 -125.394531 C 27.128906 -125.730469 26.757812 -125.898438 26.375 -125.898438 C 26.136719 -125.898438 25.933594 -125.8125 25.769531 -125.648438 L 19.292969 -132.125 L 26.023438 -125.914062 C 25.6875 -125.550781 25.519531 -125.179688 25.519531 -124.796875 Z M 6.714844 -88.164062 C 6.714844 -93.625 8.667969 -98.304688 12.574219 -102.210938 L 19.050781 -95.734375 L 12.320312 -101.949219 C 16.085938 -106.027344 20.773438 -108.070312 26.375 -108.070312 C 31.835938 -108.070312 36.519531 -106.117188 40.421875 -102.210938 C 44.328125 -98.304688 46.28125 -93.625 46.28125 -88.164062 L 46.28125 -10.746094 C 46.28125 -5.285156 44.328125 -0.605469 40.421875 3.300781 C 36.519531 7.207031 31.835938 9.160156 26.375 9.160156 C 20.773438 9.160156 16.085938 7.117188 12.320312 3.035156 L 19.050781 -3.175781 L 12.574219 3.300781 C 8.667969 -0.605469 6.714844 -5.285156 6.714844 -10.746094 Z M 25.03125 -88.164062 L 25.03125 -10.746094 C 25.03125 -10.34375 25.195312 -9.980469 25.523438 -9.652344 L 25.65625 -9.519531 L 25.777344 -9.386719 C 25.917969 -9.234375 26.117188 -9.160156 26.375 -9.160156 C 26.777344 -9.160156 27.144531 -9.324219 27.472656 -9.652344 C 27.800781 -9.980469 27.964844 -10.34375 27.964844 -10.746094 L 27.964844 -88.164062 C 27.964844 -88.566406 27.800781 -88.929688 27.472656 -89.257812 C 27.144531 -89.585938 26.777344 -89.75 26.375 -89.75 C 26.117188 -89.75 25.917969 -89.675781 25.777344 -89.523438 L 25.65625 -89.390625 L 25.523438 -89.257812 C 25.195312 -88.929688 25.03125 -88.566406 25.03125 -88.164062 Z M 25.03125 -88.164062 "/></g></g></g><g fill="#ffffff" fill-opacity="1"><g transform="translate(824.384931, 252.41255)"><g><path d="M 5.496094 -88.164062 C 5.496094 -93.625 7.449219 -98.304688 11.351562 -102.210938 L 17.828125 -95.734375 L 11.097656 -101.949219 C 14.867188 -106.027344 19.550781 -108.070312 25.15625 -108.070312 C 30.613281 -108.070312 35.140625 -106.191406 38.734375 -102.433594 C 41.761719 -99.265625 43.8125 -94.933594 44.890625 -89.433594 L 35.902344 -87.675781 L 29.363281 -94.089844 C 39.460938 -104.386719 53.117188 -109.535156 70.335938 -109.535156 C 81.496094 -109.535156 91.550781 -105.058594 100.5 -96.105469 C 109.453125 -87.152344 113.929688 -76.445312 113.929688 -63.988281 L 113.929688 -10.746094 C 113.929688 -5.285156 111.976562 -0.605469 108.074219 3.300781 C 104.167969 7.207031 99.484375 9.160156 94.027344 9.160156 C 88.421875 9.160156 83.738281 7.117188 79.96875 3.035156 L 86.699219 -3.175781 L 80.222656 3.300781 C 76.316406 -0.605469 74.367188 -5.285156 74.367188 -10.746094 L 74.367188 -61.300781 C 74.367188 -64.945312 73.535156 -67.402344 71.878906 -68.660156 L 77.417969 -75.953125 L 72.066406 -68.519531 C 69.59375 -70.300781 66.738281 -71.191406 63.496094 -71.191406 C 61.003906 -71.191406 58.722656 -70.808594 56.652344 -70.046875 L 53.484375 -78.640625 L 56.886719 -70.136719 C 54.664062 -69.25 52.988281 -68.285156 51.859375 -67.25 L 51.722656 -67.125 L 51.585938 -67.007812 C 49.894531 -65.578125 48.496094 -64.183594 47.386719 -62.828125 L 47.234375 -62.640625 L 47.074219 -62.464844 C 46.011719 -61.296875 45.34375 -60.441406 45.070312 -59.890625 L 44.957031 -59.664062 L 43.851562 -57.734375 L 35.902344 -62.277344 L 45.058594 -62.277344 L 45.058594 -10.746094 C 45.058594 -5.285156 43.105469 -0.605469 39.203125 3.300781 C 35.296875 7.207031 30.613281 9.160156 25.15625 9.160156 C 19.550781 9.160156 14.867188 7.117188 11.097656 3.035156 L 17.828125 -3.175781 L 11.351562 3.300781 C 7.449219 -0.605469 5.496094 -5.285156 5.496094 -10.746094 Z M 23.8125 -88.164062 L 23.8125 -10.746094 C 23.8125 -10.34375 23.976562 -9.980469 24.304688 -9.652344 L 24.433594 -9.519531 L 24.558594 -9.386719 C 24.699219 -9.234375 24.898438 -9.160156 25.15625 -9.160156 C 25.554688 -9.160156 25.921875 -9.324219 26.25 -9.652344 C 26.578125 -9.980469 26.742188 -10.34375 26.742188 -10.746094 L 26.742188 -64.707031 L 28.925781 -68.53125 L 36.878906 -63.988281 L 28.6875 -68.082031 C 29.714844 -70.136719 31.324219 -72.375 33.519531 -74.789062 L 40.296875 -68.625 L 33.207031 -74.425781 C 35.027344 -76.648438 37.210938 -78.839844 39.753906 -80.992188 L 45.667969 -74 L 39.480469 -80.75 C 42.257812 -83.296875 45.792969 -85.425781 50.082031 -87.144531 L 50.199219 -87.191406 L 50.320312 -87.234375 C 54.433594 -88.75 58.828125 -89.507812 63.496094 -89.507812 C 70.675781 -89.507812 77.101562 -87.46875 82.769531 -83.386719 L 82.867188 -83.316406 L 82.960938 -83.246094 C 89.441406 -78.320312 92.683594 -71.003906 92.683594 -61.300781 L 92.683594 -10.746094 C 92.683594 -10.34375 92.847656 -9.980469 93.175781 -9.652344 L 93.304688 -9.519531 L 93.429688 -9.386719 C 93.570312 -9.234375 93.769531 -9.160156 94.027344 -9.160156 C 94.425781 -9.160156 94.792969 -9.324219 95.121094 -9.652344 C 95.449219 -9.980469 95.613281 -10.34375 95.613281 -10.746094 L 95.613281 -63.988281 C 95.613281 -71.390625 92.925781 -77.777344 87.550781 -83.152344 C 82.175781 -88.53125 76.4375 -91.21875 70.335938 -91.21875 C 58.246094 -91.21875 48.949219 -87.898438 42.4375 -81.261719 L 30.253906 -68.839844 L 26.914062 -85.917969 C 26.523438 -87.90625 26.050781 -89.191406 25.496094 -89.769531 C 25.511719 -89.757812 25.546875 -89.738281 25.605469 -89.714844 C 25.542969 -89.738281 25.394531 -89.75 25.15625 -89.75 C 24.898438 -89.75 24.699219 -89.675781 24.558594 -89.523438 L 24.433594 -89.390625 L 24.304688 -89.257812 C 23.976562 -88.929688 23.8125 -88.566406 23.8125 -88.164062 Z M 23.8125 -88.164062 "/></g></g></g><g fill="#ffffff" fill-opacity="1"><g transform="translate(942.588568, 252.41255)"><g/></g></g><g fill="#ffffff" fill-opacity="1"><g transform="translate(991.188854, 252.41255)"><g><path d="M 81.816406 10.625 C 75.28125 10.625 68.757812 9.898438 62.242188 8.453125 L 64.230469 -0.488281 L 62.527344 8.511719 C 55.582031 7.195312 48.355469 4.527344 40.851562 0.5 C 33.296875 -3.371094 26.621094 -8.480469 20.828125 -14.832031 L 27.597656 -21.003906 L 21.023438 -14.628906 C 14.878906 -20.964844 9.957031 -29.40625 6.253906 -39.949219 C 2.492188 -50.164062 0.609375 -61.757812 0.609375 -74.730469 C 0.609375 -88.621094 3.09375 -100.898438 8.058594 -111.566406 C 13.101562 -122.398438 19.820312 -130.960938 28.207031 -137.253906 C 36.238281 -143.09375 44.792969 -147.46875 53.867188 -150.371094 C 62.792969 -153.105469 72.027344 -154.472656 81.570312 -154.472656 C 96.488281 -154.472656 110.414062 -150.917969 123.347656 -143.816406 L 123.589844 -143.679688 L 123.828125 -143.53125 C 126.6875 -141.726562 128.882812 -139.453125 130.410156 -136.714844 C 131.960938 -133.941406 132.734375 -130.867188 132.734375 -127.484375 C 132.734375 -122.351562 130.945312 -117.992188 127.367188 -114.414062 L 120.890625 -120.890625 L 127.640625 -114.703125 C 124.035156 -110.769531 119.503906 -108.800781 114.050781 -108.800781 C 110.640625 -108.800781 107.660156 -109.527344 105.113281 -110.984375 L 109.65625 -118.9375 L 105.855469 -110.605469 C 97.78125 -114.285156 89.605469 -116.128906 81.328125 -116.128906 C 67.121094 -116.128906 56.722656 -112.769531 50.132812 -106.050781 C 43.492188 -99.285156 40.175781 -88.601562 40.175781 -74 C 40.175781 -65.6875 41.164062 -58.492188 43.144531 -52.414062 C 45.015625 -46.664062 47.214844 -42.40625 49.746094 -39.632812 C 52.40625 -36.597656 55.59375 -34.210938 59.3125 -32.476562 L 59.480469 -32.398438 L 59.644531 -32.3125 C 63.496094 -30.320312 66.972656 -29.078125 70.074219 -28.582031 C 73.523438 -28.007812 77.273438 -27.71875 81.328125 -27.71875 C 89.605469 -27.71875 97.78125 -29.5625 105.855469 -33.242188 L 109.65625 -24.910156 L 105.113281 -32.863281 C 107.660156 -34.316406 110.640625 -35.046875 114.050781 -35.046875 C 119.347656 -35.046875 123.785156 -33.257812 127.367188 -29.675781 C 130.945312 -26.097656 132.734375 -21.660156 132.734375 -16.363281 C 132.734375 -12.980469 131.960938 -9.90625 130.410156 -7.132812 C 128.882812 -4.394531 126.6875 -2.121094 123.828125 -0.316406 L 123.589844 -0.167969 L 123.347656 -0.03125 C 110.414062 7.070312 96.570312 10.625 81.816406 10.625 Z M 81.816406 -7.691406 C 93.4375 -7.691406 104.339844 -10.492188 114.527344 -16.085938 L 118.9375 -8.058594 L 114.046875 -15.800781 C 114.222656 -15.914062 114.351562 -16.011719 114.433594 -16.097656 L 114.421875 -16.066406 C 114.402344 -16.035156 114.390625 -16.011719 114.386719 -15.996094 C 114.410156 -16.078125 114.417969 -16.199219 114.417969 -16.363281 C 114.417969 -16.589844 114.40625 -16.734375 114.382812 -16.800781 C 114.398438 -16.753906 114.410156 -16.730469 114.414062 -16.726562 C 114.417969 -16.71875 114.445312 -16.710938 114.488281 -16.691406 C 114.425781 -16.714844 114.28125 -16.730469 114.050781 -16.730469 C 113.828125 -16.730469 113.675781 -16.71875 113.597656 -16.703125 C 113.765625 -16.742188 113.96875 -16.824219 114.199219 -16.957031 L 113.835938 -16.75 L 113.457031 -16.578125 C 102.96875 -11.792969 92.257812 -9.402344 81.328125 -9.402344 C 76.261719 -9.402344 71.546875 -9.765625 67.179688 -10.496094 C 62.140625 -11.300781 56.824219 -13.148438 51.230469 -16.042969 L 55.4375 -24.179688 L 51.566406 -15.878906 C 45.515625 -18.703125 40.398438 -22.503906 36.21875 -27.285156 C 31.910156 -32 28.414062 -38.488281 25.726562 -46.742188 C 23.148438 -54.664062 21.859375 -63.75 21.859375 -74 C 21.859375 -93.589844 26.925781 -108.550781 37.054688 -118.878906 C 47.234375 -129.253906 61.992188 -134.445312 81.328125 -134.445312 C 92.257812 -134.445312 102.96875 -132.054688 113.457031 -127.269531 L 113.835938 -127.09375 L 114.199219 -126.886719 C 113.96875 -127.019531 113.765625 -127.105469 113.597656 -127.144531 C 113.675781 -127.125 113.828125 -127.117188 114.050781 -127.117188 C 114.160156 -127.117188 114.238281 -127.125 114.296875 -127.132812 C 114.285156 -127.132812 114.261719 -127.125 114.230469 -127.109375 C 114.183594 -127.089844 114.140625 -127.066406 114.105469 -127.039062 L 114.140625 -127.078125 L 114.273438 -127.226562 L 114.414062 -127.367188 C 114.417969 -127.367188 114.417969 -127.410156 114.417969 -127.484375 C 114.417969 -127.648438 114.410156 -127.769531 114.386719 -127.851562 C 114.390625 -127.835938 114.402344 -127.8125 114.421875 -127.777344 L 114.433594 -127.75 C 114.351562 -127.835938 114.222656 -127.933594 114.046875 -128.042969 L 118.9375 -135.789062 L 114.527344 -127.761719 C 104.339844 -133.355469 93.355469 -136.152344 81.570312 -136.152344 C 73.855469 -136.152344 66.480469 -135.078125 59.449219 -132.925781 C 52.246094 -130.621094 45.496094 -127.179688 39.199219 -122.601562 C 33.257812 -118.144531 28.414062 -111.890625 24.664062 -103.835938 C 20.839844 -95.617188 18.925781 -85.917969 18.925781 -74.730469 C 18.925781 -63.9375 20.464844 -54.363281 23.539062 -46.015625 C 26.351562 -38 29.894531 -31.789062 34.171875 -27.378906 L 34.269531 -27.277344 L 34.363281 -27.171875 C 38.667969 -22.453125 43.714844 -18.609375 49.511719 -15.640625 C 55.359375 -12.503906 60.832031 -10.453125 65.933594 -9.488281 L 66.074219 -9.460938 L 66.21875 -9.429688 C 71.425781 -8.273438 76.625 -7.691406 81.816406 -7.691406 Z M 81.816406 -7.691406 "/></g></g></g><g fill="#ffffff" fill-opacity="1"><g transform="translate(1125.022726, 252.41255)"><g><path d="M 113.929688 -10.746094 C 113.929688 -5.285156 111.976562 -0.605469 108.074219 3.300781 C 104.167969 7.207031 99.484375 9.160156 94.027344 9.160156 C 88.421875 9.160156 83.738281 7.117188 79.96875 3.035156 L 86.699219 -3.175781 L 80.222656 3.300781 C 76.316406 -0.605469 74.367188 -5.285156 74.367188 -10.746094 L 74.367188 -61.300781 C 74.367188 -64.945312 73.535156 -67.402344 71.878906 -68.660156 L 77.417969 -75.953125 L 72.066406 -68.519531 C 69.59375 -70.300781 66.738281 -71.191406 63.496094 -71.191406 C 61.003906 -71.191406 58.722656 -70.808594 56.652344 -70.046875 L 53.484375 -78.640625 L 56.886719 -70.136719 C 54.664062 -69.25 52.988281 -68.285156 51.859375 -67.25 L 51.722656 -67.125 L 51.585938 -67.007812 C 49.894531 -65.578125 48.496094 -64.183594 47.386719 -62.828125 L 47.234375 -62.640625 L 47.074219 -62.464844 C 46.011719 -61.296875 45.34375 -60.441406 45.070312 -59.890625 L 44.957031 -59.664062 L 43.851562 -57.734375 L 35.902344 -62.277344 L 45.058594 -62.277344 L 45.058594 -10.746094 C 45.058594 -5.285156 43.105469 -0.605469 39.203125 3.300781 C 35.296875 7.207031 30.613281 9.160156 25.15625 9.160156 C 19.550781 9.160156 14.867188 7.117188 11.097656 3.035156 L 17.828125 -3.175781 L 11.351562 3.300781 C 7.449219 -0.605469 5.496094 -5.285156 5.496094 -10.746094 L 5.496094 -133.34375 C 5.496094 -138.804688 7.449219 -143.488281 11.351562 -147.390625 L 17.828125 -140.917969 L 11.097656 -147.128906 C 14.867188 -151.210938 19.550781 -153.25 25.15625 -153.25 C 30.613281 -153.25 35.296875 -151.296875 39.203125 -147.390625 C 43.105469 -143.488281 45.058594 -138.804688 45.058594 -133.34375 L 45.058594 -87.675781 L 35.902344 -87.675781 L 29.363281 -94.089844 C 39.460938 -104.386719 53.117188 -109.535156 70.335938 -109.535156 C 81.496094 -109.535156 91.550781 -105.058594 100.5 -96.105469 C 109.453125 -87.152344 113.929688 -76.445312 113.929688 -63.988281 Z M 95.613281 -10.746094 L 95.613281 -63.988281 C 95.613281 -71.390625 92.925781 -77.777344 87.550781 -83.152344 C 82.175781 -88.53125 76.4375 -91.21875 70.335938 -91.21875 C 58.246094 -91.21875 48.949219 -87.898438 42.4375 -81.261719 L 26.742188 -65.257812 L 26.742188 -133.34375 C 26.742188 -133.746094 26.578125 -134.113281 26.25 -134.441406 C 25.921875 -134.769531 25.554688 -134.933594 25.15625 -134.933594 C 24.898438 -134.933594 24.699219 -134.855469 24.558594 -134.703125 L 24.433594 -134.570312 L 24.304688 -134.441406 C 23.976562 -134.113281 23.8125 -133.746094 23.8125 -133.34375 L 23.8125 -10.746094 C 23.8125 -10.34375 23.976562 -9.980469 24.304688 -9.652344 L 24.433594 -9.519531 L 24.558594 -9.386719 C 24.699219 -9.234375 24.898438 -9.160156 25.15625 -9.160156 C 25.554688 -9.160156 25.921875 -9.324219 26.25 -9.652344 C 26.578125 -9.980469 26.742188 -10.34375 26.742188 -10.746094 L 26.742188 -64.707031 L 28.925781 -68.53125 L 36.878906 -63.988281 L 28.6875 -68.082031 C 29.714844 -70.136719 31.324219 -72.375 33.519531 -74.789062 L 40.296875 -68.625 L 33.207031 -74.425781 C 35.027344 -76.648438 37.210938 -78.839844 39.753906 -80.992188 L 45.667969 -74 L 39.480469 -80.75 C 42.257812 -83.296875 45.792969 -85.425781 50.082031 -87.144531 L 50.199219 -87.191406 L 50.320312 -87.234375 C 54.433594 -88.75 58.828125 -89.507812 63.496094 -89.507812 C 70.675781 -89.507812 77.101562 -87.46875 82.769531 -83.386719 L 82.867188 -83.316406 L 82.960938 -83.246094 C 89.441406 -78.320312 92.683594 -71.003906 92.683594 -61.300781 L 92.683594 -10.746094 C 92.683594 -10.34375 92.847656 -9.980469 93.175781 -9.652344 L 93.304688 -9.519531 L 93.429688 -9.386719 C 93.570312 -9.234375 93.769531 -9.160156 94.027344 -9.160156 C 94.425781 -9.160156 94.792969 -9.324219 95.121094 -9.652344 C 95.449219 -9.980469 95.613281 -10.34375 95.613281 -10.746094 Z M 95.613281 -10.746094 "/></g></g></g><g fill="#ffffff" fill-opacity="1"><g transform="translate(1243.226363, 252.41255)"><g><path d="M 85.539062 -3.960938 C 75.617188 5.761719 61.921875 10.625 44.449219 10.625 L 41.519531 10.625 C 39.546875 10.625 37.335938 10.417969 34.882812 10.011719 C 32.152344 9.589844 28.832031 8.601562 24.929688 7.039062 C 20.703125 5.347656 16.898438 3.019531 13.507812 0.0546875 L 19.539062 -6.839844 L 13.761719 0.269531 C 10.058594 -2.742188 6.933594 -7.003906 4.382812 -12.523438 C 1.867188 -17.976562 0.609375 -24.222656 0.609375 -31.261719 C 0.609375 -42.367188 4.242188 -51.65625 11.503906 -59.132812 C 18.890625 -66.519531 29.136719 -70.214844 42.25 -70.214844 C 58.203125 -70.214844 72.144531 -66.394531 84.070312 -58.753906 L 79.128906 -51.042969 L 69.96875 -51.042969 L 69.96875 -59.101562 C 69.96875 -62.867188 68.679688 -65.707031 66.101562 -67.621094 L 71.558594 -74.976562 L 66.367188 -67.429688 C 64.824219 -68.492188 62.320312 -69.351562 58.859375 -70.007812 C 54.703125 -70.796875 49.492188 -71.191406 43.226562 -71.191406 C 39.542969 -71.191406 35.289062 -70.75 30.457031 -69.875 L 29.644531 -69.726562 L 28.816406 -69.726562 C 23.683594 -69.726562 19.328125 -71.515625 15.75 -75.09375 L 22.222656 -81.570312 L 16.0625 -74.792969 C 12.273438 -78.238281 10.378906 -82.695312 10.378906 -88.164062 C 10.378906 -92.695312 11.542969 -96.539062 13.875 -99.703125 C 16.316406 -103.019531 19.742188 -105.226562 24.15625 -106.328125 L 26.375 -97.445312 L 23.804688 -106.234375 C 31.320312 -108.433594 40.886719 -109.535156 52.507812 -109.535156 C 69.847656 -109.535156 83.597656 -105.332031 93.757812 -96.933594 C 104.273438 -88.0625 109.535156 -75.699219 109.535156 -59.835938 L 109.535156 -10.5 C 109.535156 -4.898438 107.492188 -0.210938 103.414062 3.554688 L 97.199219 -3.175781 L 103.675781 3.300781 C 99.773438 7.207031 95.089844 9.160156 89.628906 9.160156 C 84.027344 9.160156 79.339844 7.117188 75.574219 3.035156 L 82.304688 -3.175781 L 76.089844 3.554688 C 72.011719 -0.210938 69.96875 -4.898438 69.96875 -10.5 L 79.128906 -10.5 Z M 72.71875 -17.042969 L 88.285156 -32.300781 L 88.285156 -10.5 C 88.285156 -10.246094 88.363281 -10.046875 88.515625 -9.90625 L 88.785156 -9.65625 L 89.03125 -9.386719 C 89.171875 -9.234375 89.371094 -9.160156 89.628906 -9.160156 C 90.03125 -9.160156 90.394531 -9.324219 90.726562 -9.652344 L 90.855469 -9.78125 L 90.988281 -9.90625 C 91.140625 -10.046875 91.21875 -10.246094 91.21875 -10.5 L 91.21875 -59.835938 C 91.21875 -70.023438 88.171875 -77.683594 82.082031 -82.816406 C 75.3125 -88.417969 65.453125 -91.21875 52.507812 -91.21875 C 42.636719 -91.21875 34.785156 -90.363281 28.949219 -88.65625 L 28.773438 -88.605469 L 28.597656 -88.558594 C 28.382812 -88.507812 28.25 -88.464844 28.203125 -88.4375 C 28.351562 -88.527344 28.492188 -88.660156 28.621094 -88.835938 C 28.714844 -88.964844 28.769531 -89.054688 28.785156 -89.113281 C 28.726562 -88.902344 28.695312 -88.585938 28.695312 -88.164062 C 28.695312 -88.019531 28.703125 -87.902344 28.71875 -87.820312 C 28.71875 -87.828125 28.707031 -87.851562 28.691406 -87.894531 C 28.617188 -88.078125 28.515625 -88.230469 28.386719 -88.347656 L 28.546875 -88.199219 L 28.699219 -88.046875 C 28.703125 -88.042969 28.742188 -88.042969 28.816406 -88.042969 L 28.816406 -78.882812 L 27.179688 -87.894531 C 33.09375 -88.96875 38.445312 -89.507812 43.226562 -89.507812 C 58.800781 -89.507812 69.972656 -87.179688 76.746094 -82.523438 L 76.882812 -82.429688 L 77.015625 -82.332031 C 84.527344 -76.757812 88.285156 -69.011719 88.285156 -59.101562 L 88.285156 -34.300781 L 74.1875 -43.332031 C 65.273438 -49.042969 54.628906 -51.898438 42.25 -51.898438 C 34.195312 -51.898438 28.328125 -50.054688 24.640625 -46.371094 C 20.832031 -42.449219 18.925781 -37.414062 18.925781 -31.261719 C 18.925781 -26.902344 19.625 -23.214844 21.015625 -20.199219 C 22.375 -17.253906 23.808594 -15.167969 25.3125 -13.945312 L 25.441406 -13.839844 L 25.570312 -13.730469 C 27.390625 -12.136719 29.441406 -10.882812 31.730469 -9.96875 C 34.339844 -8.925781 36.394531 -8.289062 37.894531 -8.058594 C 39.351562 -7.8125 40.558594 -7.691406 41.519531 -7.691406 L 44.449219 -7.691406 C 56.933594 -7.691406 66.359375 -10.808594 72.71875 -17.042969 Z M 72.835938 -27.050781 C 68.574219 -31.078125 61.882812 -33.09375 52.753906 -33.09375 C 48.949219 -33.09375 45.855469 -32.890625 43.472656 -32.488281 C 41.867188 -32.214844 40.875 -31.953125 40.492188 -31.699219 C 40.398438 -31.636719 40.332031 -31.585938 40.296875 -31.542969 C 40.300781 -31.546875 40.304688 -31.554688 40.308594 -31.5625 C 40.21875 -31.382812 40.175781 -31.039062 40.175781 -30.527344 C 40.175781 -30.308594 40.191406 -30.140625 40.222656 -30.023438 L 40.210938 -30.035156 C 40.269531 -29.9375 40.488281 -29.785156 40.867188 -29.574219 C 43.113281 -28.339844 47.078125 -27.71875 52.753906 -27.71875 C 57.683594 -27.71875 61.832031 -28.34375 65.203125 -29.589844 L 65.34375 -29.644531 L 65.484375 -29.691406 C 67.273438 -30.285156 68.703125 -30.855469 69.78125 -31.394531 C 70.175781 -31.589844 70.488281 -31.765625 70.71875 -31.921875 L 70.699219 -31.875 L 77.175781 -25.398438 L 70.023438 -31.121094 L 71.976562 -33.5625 L 79.128906 -27.839844 L 69.96875 -27.839844 L 69.96875 -33.703125 L 79.128906 -33.703125 Z M 88.285156 -37.644531 L 88.285156 -24.628906 L 84.007812 -19.28125 L 83.652344 -18.921875 C 81.164062 -16.4375 77.042969 -14.234375 71.277344 -12.316406 L 68.382812 -21.003906 L 71.5625 -12.414062 C 66.140625 -10.40625 59.871094 -9.402344 52.753906 -9.402344 C 43.9375 -9.402344 37.03125 -10.777344 32.03125 -13.53125 C 28.789062 -15.316406 26.292969 -17.65625 24.539062 -20.550781 C 22.753906 -23.503906 21.859375 -26.828125 21.859375 -30.527344 C 21.859375 -33.921875 22.546875 -36.996094 23.921875 -39.753906 C 25.382812 -42.667969 27.519531 -45.0625 30.332031 -46.941406 C 34.800781 -49.917969 42.273438 -51.410156 52.753906 -51.410156 C 66.742188 -51.410156 77.632812 -47.726562 85.421875 -40.355469 Z M 88.285156 -37.644531 "/></g></g></g><g fill="#ffffff" fill-opacity="1"><g transform="translate(1357.033971, 252.41255)"><g><path d="M 70.09375 -28.207031 C 75.589844 -28.207031 79.988281 -26.191406 83.285156 -22.164062 L 83.410156 -22.011719 L 83.523438 -21.859375 C 86.210938 -18.277344 87.554688 -14.003906 87.554688 -9.035156 C 87.554688 -4.234375 86.210938 -0.0390625 83.523438 3.542969 C 80.226562 7.9375 75.75 10.136719 70.09375 10.136719 L 57.636719 10.136719 C 48.957031 10.136719 41.558594 8.710938 35.445312 5.855469 L 39.320312 -2.441406 L 35.679688 5.960938 C 28.902344 3.023438 23.871094 -1.378906 20.582031 -7.246094 L 28.574219 -11.722656 L 20.808594 -6.867188 C 17.75 -11.761719 15.710938 -16.972656 14.683594 -22.511719 L 23.691406 -24.179688 L 14.765625 -22.117188 C 13.632812 -27.03125 13.066406 -32.683594 13.066406 -39.074219 L 13.066406 -79.128906 L 22.222656 -79.128906 L 22.222656 -69.96875 L 12.457031 -69.96875 C 6.742188 -69.96875 2.320312 -72.121094 -0.8125 -76.429688 C -3.28125 -79.824219 -4.519531 -83.816406 -4.519531 -88.410156 C -4.519531 -93.144531 -2.625 -97.679688 1.167969 -102.011719 L 28.4375 -133.949219 L 28.691406 -134.203125 C 32.761719 -138.273438 36.710938 -140.304688 40.539062 -140.304688 C 44.332031 -140.304688 47.421875 -139.03125 49.800781 -136.480469 C 52.011719 -134.109375 53.117188 -131.113281 53.117188 -127.484375 L 53.117188 -98.910156 L 43.960938 -98.910156 L 43.960938 -108.070312 L 70.335938 -108.070312 C 75.945312 -108.070312 80.339844 -106.09375 83.515625 -102.148438 C 86.207031 -98.804688 87.554688 -94.386719 87.554688 -88.898438 C 87.554688 -84.144531 86.320312 -80.070312 83.847656 -76.671875 C 80.5 -72.203125 75.992188 -69.96875 70.335938 -69.96875 L 43.960938 -69.96875 L 43.960938 -79.128906 L 53.117188 -79.128906 L 53.117188 -39.808594 C 53.117188 -35.847656 53.371094 -32.753906 53.871094 -30.527344 C 54.042969 -29.769531 54.21875 -29.203125 54.398438 -28.828125 L 54.375 -28.851562 C 54.253906 -29.019531 54.09375 -29.1875 53.898438 -29.359375 C 53.828125 -29.421875 53.773438 -29.464844 53.730469 -29.492188 C 53.78125 -29.460938 53.859375 -29.421875 53.964844 -29.378906 C 54.398438 -29.1875 54.984375 -29.015625 55.71875 -28.855469 C 57.730469 -28.425781 60.402344 -28.207031 63.742188 -28.207031 Z M 70.09375 -9.890625 L 63.742188 -9.890625 C 53.46875 -9.890625 46.167969 -11.785156 41.835938 -15.574219 C 39.035156 -18.027344 37.089844 -21.667969 36.003906 -26.5 C 35.203125 -30.050781 34.800781 -34.488281 34.800781 -39.808594 L 34.800781 -88.285156 L 70.335938 -88.285156 C 70.25 -88.285156 70.089844 -88.230469 69.851562 -88.117188 C 69.523438 -87.960938 69.25 -87.734375 69.035156 -87.445312 C 69.167969 -87.632812 69.238281 -88.113281 69.238281 -88.898438 C 69.238281 -89.761719 69.171875 -90.429688 69.046875 -90.90625 C 69.027344 -90.976562 69.015625 -91.011719 69.015625 -91.015625 C 69.066406 -90.910156 69.144531 -90.792969 69.246094 -90.664062 C 69.554688 -90.285156 69.921875 -90.003906 70.359375 -89.824219 C 70.46875 -89.777344 70.558594 -89.75 70.625 -89.734375 C 70.566406 -89.746094 70.46875 -89.75 70.335938 -89.75 L 34.800781 -89.75 L 34.800781 -127.484375 C 34.800781 -126.296875 35.335938 -125.132812 36.410156 -123.984375 C 37.652344 -122.652344 39.027344 -121.988281 40.539062 -121.988281 C 41.667969 -121.988281 42.535156 -122.179688 43.136719 -122.566406 C 42.808594 -122.355469 42.308594 -121.917969 41.644531 -121.253906 L 35.167969 -127.730469 L 42.132812 -121.78125 L 14.953125 -89.949219 C 14.410156 -89.328125 14.039062 -88.800781 13.839844 -88.363281 C 13.808594 -88.285156 13.785156 -88.234375 13.78125 -88.207031 C 13.792969 -88.261719 13.796875 -88.328125 13.796875 -88.410156 C 13.796875 -87.789062 13.867188 -87.386719 14 -87.203125 C 13.710938 -87.597656 13.328125 -87.90625 12.851562 -88.125 C 12.683594 -88.203125 12.527344 -88.253906 12.390625 -88.28125 C 12.367188 -88.289062 12.351562 -88.289062 12.34375 -88.289062 C 12.371094 -88.289062 12.410156 -88.285156 12.457031 -88.285156 L 31.382812 -88.285156 L 31.382812 -39.074219 C 31.382812 -34.074219 31.792969 -29.792969 32.613281 -26.238281 L 32.660156 -26.042969 L 32.695312 -25.847656 C 33.296875 -22.589844 34.511719 -19.5 36.339844 -16.578125 L 36.457031 -16.390625 L 36.566406 -16.199219 C 37.835938 -13.925781 39.96875 -12.140625 42.960938 -10.84375 L 43.078125 -10.796875 L 43.191406 -10.742188 C 46.851562 -9.035156 51.664062 -8.179688 57.636719 -8.179688 L 70.09375 -8.179688 C 70.003906 -8.179688 69.84375 -8.125 69.609375 -8.011719 C 69.28125 -7.855469 69.035156 -7.667969 68.871094 -7.449219 C 69.113281 -7.773438 69.238281 -8.304688 69.238281 -9.035156 C 69.238281 -9.933594 69.113281 -10.542969 68.871094 -10.867188 L 76.199219 -16.363281 L 69.109375 -10.5625 C 69.304688 -10.324219 69.5625 -10.136719 69.882812 -9.996094 C 70.003906 -9.941406 70.109375 -9.90625 70.203125 -9.890625 C 70.195312 -9.890625 70.160156 -9.890625 70.09375 -9.890625 Z M 70.09375 -9.890625 "/></g></g></g><g fill="#0cc0df" fill-opacity="1"><g transform="translate(388.203725, 252.41255)"><g><path d="M 16.84375 -22.46875 C 24.988281 -19.863281 33.945312 -18.5625 43.71875 -18.5625 C 66.34375 -18.5625 77.65625 -28.816406 77.65625 -49.328125 L 77.65625 -133.34375 C 77.65625 -136.269531 78.71875 -138.796875 80.84375 -140.921875 C 82.789062 -143.035156 85.226562 -144.09375 88.15625 -144.09375 C 91.09375 -144.09375 93.617188 -143.035156 95.734375 -140.921875 C 97.847656 -138.796875 98.90625 -136.269531 98.90625 -133.34375 L 98.90625 -48.359375 C 98.90625 -40.210938 97.601562 -33.046875 95 -26.859375 C 92.394531 -20.671875 89.300781 -15.867188 85.71875 -12.453125 C 81.976562 -9.035156 77.5 -6.269531 72.28125 -4.15625 C 67.070312 -2.039062 62.597656 -0.65625 58.859375 0 C 54.953125 0.8125 50.800781 1.300781 46.40625 1.46875 C 31.425781 1.46875 19.375 -0.8125 10.25 -5.375 C 7.15625 -7.320312 5.609375 -10.007812 5.609375 -13.4375 C 5.609375 -16.039062 6.503906 -18.238281 8.296875 -20.03125 C 10.085938 -21.820312 12.285156 -22.71875 14.890625 -22.71875 C 15.710938 -22.71875 16.363281 -22.632812 16.84375 -22.46875 Z M 16.84375 -22.46875 "/></g></g></g><g fill="#0cc0df" fill-opacity="1"><g transform="translate(502.988274, 252.41255)"><g><path d="M 60.078125 1.46875 C 56.003906 1.46875 51.929688 0.976562 47.859375 0 C 43.628906 -0.8125 39.316406 -2.441406 34.921875 -4.890625 C 30.359375 -7.328125 26.367188 -10.421875 22.953125 -14.171875 C 19.535156 -17.910156 16.6875 -22.957031 14.40625 -29.3125 C 12.125 -35.5 10.984375 -42.578125 10.984375 -50.546875 C 10.984375 -66.671875 16.113281 -79.046875 26.375 -87.671875 C 36.46875 -96.140625 47.703125 -100.375 60.078125 -100.375 C 72.453125 -100.375 83.769531 -96.140625 94.03125 -87.671875 C 104.125 -79.046875 109.171875 -66.671875 109.171875 -50.546875 C 109.171875 -42.578125 108.03125 -35.5 105.75 -29.3125 C 103.46875 -22.957031 100.617188 -17.910156 97.203125 -14.171875 C 93.785156 -10.421875 89.878906 -7.328125 85.484375 -4.890625 C 80.921875 -2.441406 76.601562 -0.8125 72.53125 0 C 68.300781 0.976562 64.148438 1.46875 60.078125 1.46875 Z M 60.078125 -18.5625 C 78.640625 -18.5625 87.921875 -29.0625 87.921875 -50.0625 C 87.921875 -60.644531 85.148438 -68.378906 79.609375 -73.265625 C 73.910156 -77.984375 67.398438 -80.34375 60.078125 -80.34375 C 52.753906 -80.34375 46.320312 -77.984375 40.78125 -73.265625 C 35.082031 -68.378906 32.234375 -60.644531 32.234375 -50.0625 C 32.234375 -29.0625 41.515625 -18.5625 60.078125 -18.5625 Z M 60.078125 -18.5625 "/></g></g></g><g fill="#0cc0df" fill-opacity="1"><g transform="translate(621.92456, 252.41255)"><g><path d="M 14.171875 28.328125 C 23.117188 27.835938 28.976562 23.769531 31.75 16.125 L 37.359375 0.484375 C 33.941406 -8.796875 28.570312 -23.039062 21.25 -42.25 C 13.914062 -61.457031 8.703125 -75.132812 5.609375 -83.28125 C 5.128906 -85.71875 4.890625 -87.265625 4.890625 -87.921875 C 4.890625 -90.847656 5.945312 -93.453125 8.0625 -95.734375 C 10.007812 -97.847656 12.453125 -98.90625 15.390625 -98.90625 C 20.753906 -98.90625 24.332031 -96.300781 26.125 -91.09375 L 48.59375 -28.078125 L 74.734375 -91.09375 C 76.523438 -96.300781 80.109375 -98.90625 85.484375 -98.90625 C 88.410156 -98.90625 90.929688 -97.847656 93.046875 -95.734375 C 95.003906 -93.453125 95.984375 -90.847656 95.984375 -87.921875 C 95.984375 -87.265625 95.738281 -85.71875 95.25 -83.28125 L 48.84375 26.125 C 45.101562 35.082031 40.867188 41.023438 36.140625 43.953125 C 31.253906 46.890625 25.554688 48.359375 19.046875 48.359375 L 14.171875 48.359375 C 11.554688 48.359375 9.273438 47.378906 7.328125 45.421875 C 5.210938 43.472656 4.15625 41.113281 4.15625 38.34375 C 4.15625 35.570312 5.210938 33.210938 7.328125 31.265625 C 9.273438 29.304688 11.554688 28.328125 14.171875 28.328125 Z M 14.171875 28.328125 "/></g></g></g><g fill="#0cc0df" fill-opacity="1"><g transform="translate(722.788444, 252.41255)"><g/></g></g><g fill="#0cc0df" fill-opacity="1"><g transform="translate(771.388707, 252.41255)"><g><path d="M 16.359375 -124.796875 C 16.359375 -127.566406 17.335938 -130.007812 19.296875 -132.125 C 21.242188 -134.070312 23.601562 -135.046875 26.375 -135.046875 C 29.144531 -135.046875 31.585938 -134.070312 33.703125 -132.125 C 35.660156 -130.007812 36.640625 -127.566406 36.640625 -124.796875 C 36.640625 -122.023438 35.660156 -119.664062 33.703125 -117.71875 C 31.585938 -115.757812 29.144531 -114.78125 26.375 -114.78125 C 23.601562 -114.78125 21.242188 -115.757812 19.296875 -117.71875 C 17.335938 -119.664062 16.359375 -122.023438 16.359375 -124.796875 Z M 15.875 -88.15625 C 15.875 -91.09375 16.929688 -93.617188 19.046875 -95.734375 C 21.003906 -97.847656 23.445312 -98.90625 26.375 -98.90625 C 29.300781 -98.90625 31.828125 -97.847656 33.953125 -95.734375 C 36.066406 -93.617188 37.125 -91.09375 37.125 -88.15625 L 37.125 -10.75 C 37.125 -7.8125 36.066406 -5.285156 33.953125 -3.171875 C 31.828125 -1.054688 29.300781 0 26.375 0 C 23.445312 0 21.003906 -1.054688 19.046875 -3.171875 C 16.929688 -5.285156 15.875 -7.8125 15.875 -10.75 Z M 15.875 -88.15625 "/></g></g></g><g fill="#0cc0df" fill-opacity="1"><g transform="translate(824.384931, 252.41255)"><g><path d="M 14.65625 -88.15625 C 14.65625 -91.09375 15.710938 -93.617188 17.828125 -95.734375 C 19.785156 -97.847656 22.226562 -98.90625 25.15625 -98.90625 C 30.851562 -98.90625 34.4375 -95.160156 35.90625 -87.671875 C 44.207031 -96.140625 55.679688 -100.375 70.328125 -100.375 C 78.960938 -100.375 86.863281 -96.789062 94.03125 -89.625 C 101.1875 -82.457031 104.765625 -73.910156 104.765625 -63.984375 L 104.765625 -10.75 C 104.765625 -7.8125 103.707031 -5.285156 101.59375 -3.171875 C 99.476562 -1.054688 96.957031 0 94.03125 0 C 91.09375 0 88.648438 -1.054688 86.703125 -3.171875 C 84.578125 -5.285156 83.515625 -7.8125 83.515625 -10.75 L 83.515625 -61.296875 C 83.515625 -67.972656 81.484375 -72.859375 77.421875 -75.953125 C 73.347656 -78.878906 68.707031 -80.34375 63.5 -80.34375 C 59.914062 -80.34375 56.578125 -79.773438 53.484375 -78.640625 C 50.222656 -77.335938 47.617188 -75.789062 45.671875 -74 C 43.554688 -72.207031 41.765625 -70.414062 40.296875 -68.625 C 38.671875 -66.832031 37.53125 -65.285156 36.875 -63.984375 L 35.90625 -62.28125 L 35.90625 -10.75 C 35.90625 -7.8125 34.84375 -5.285156 32.71875 -3.171875 C 30.601562 -1.054688 28.082031 0 25.15625 0 C 22.226562 0 19.785156 -1.054688 17.828125 -3.171875 C 15.710938 -5.285156 14.65625 -7.8125 14.65625 -10.75 Z M 14.65625 -88.15625 "/></g></g></g><g fill="#0cc0df" fill-opacity="1"><g transform="translate(942.588568, 252.41255)"><g/></g></g><g fill="#0cc0df" fill-opacity="1"><g transform="translate(991.188854, 252.41255)"><g><path d="M 81.8125 1.46875 C 75.945312 1.46875 70.085938 0.816406 64.234375 -0.484375 C 58.203125 -1.628906 51.851562 -3.992188 45.1875 -7.578125 C 38.507812 -10.992188 32.644531 -15.46875 27.59375 -21 C 22.382812 -26.375 18.148438 -33.703125 14.890625 -42.984375 C 11.472656 -52.265625 9.765625 -62.847656 9.765625 -74.734375 C 9.765625 -87.265625 11.960938 -98.253906 16.359375 -107.703125 C 20.753906 -117.140625 26.535156 -124.546875 33.703125 -129.921875 C 40.867188 -135.128906 48.519531 -139.035156 56.65625 -141.640625 C 64.632812 -144.085938 72.9375 -145.3125 81.5625 -145.3125 C 94.914062 -145.3125 107.375 -142.132812 118.9375 -135.78125 C 122.03125 -133.832031 123.578125 -131.066406 123.578125 -127.484375 C 123.578125 -124.878906 122.679688 -122.679688 120.890625 -120.890625 C 119.097656 -118.929688 116.816406 -117.953125 114.046875 -117.953125 C 112.253906 -117.953125 110.789062 -118.28125 109.65625 -118.9375 C 100.375 -123.164062 90.929688 -125.28125 81.328125 -125.28125 C 47.785156 -125.28125 31.015625 -108.1875 31.015625 -74 C 31.015625 -64.71875 32.15625 -56.578125 34.4375 -49.578125 C 36.71875 -42.578125 39.566406 -37.203125 42.984375 -33.453125 C 46.398438 -29.546875 50.550781 -26.453125 55.4375 -24.171875 C 60.15625 -21.734375 64.550781 -20.1875 68.625 -19.53125 C 72.53125 -18.882812 76.765625 -18.5625 81.328125 -18.5625 C 90.929688 -18.5625 100.375 -20.675781 109.65625 -24.90625 C 110.789062 -25.5625 112.253906 -25.890625 114.046875 -25.890625 C 116.816406 -25.890625 119.097656 -24.992188 120.890625 -23.203125 C 122.679688 -21.410156 123.578125 -19.128906 123.578125 -16.359375 C 123.578125 -12.773438 122.03125 -10.007812 118.9375 -8.0625 C 107.375 -1.707031 95 1.46875 81.8125 1.46875 Z M 81.8125 1.46875 "/></g></g></g><g fill="#0cc0df" fill-opacity="1"><g transform="translate(1125.022726, 252.41255)"><g><path d="M 104.765625 -10.75 C 104.765625 -7.8125 103.707031 -5.285156 101.59375 -3.171875 C 99.476562 -1.054688 96.957031 0 94.03125 0 C 91.09375 0 88.648438 -1.054688 86.703125 -3.171875 C 84.578125 -5.285156 83.515625 -7.8125 83.515625 -10.75 L 83.515625 -61.296875 C 83.515625 -67.972656 81.484375 -72.859375 77.421875 -75.953125 C 73.347656 -78.878906 68.707031 -80.34375 63.5 -80.34375 C 59.914062 -80.34375 56.578125 -79.773438 53.484375 -78.640625 C 50.222656 -77.335938 47.617188 -75.789062 45.671875 -74 C 43.554688 -72.207031 41.765625 -70.414062 40.296875 -68.625 C 38.671875 -66.832031 37.53125 -65.285156 36.875 -63.984375 L 35.90625 -62.28125 L 35.90625 -10.75 C 35.90625 -7.8125 34.84375 -5.285156 32.71875 -3.171875 C 30.601562 -1.054688 28.082031 0 25.15625 0 C 22.226562 0 19.785156 -1.054688 17.828125 -3.171875 C 15.710938 -5.285156 14.65625 -7.8125 14.65625 -10.75 L 14.65625 -133.34375 C 14.65625 -136.269531 15.710938 -138.796875 17.828125 -140.921875 C 19.785156 -143.035156 22.226562 -144.09375 25.15625 -144.09375 C 28.082031 -144.09375 30.601562 -143.035156 32.71875 -140.921875 C 34.84375 -138.796875 35.90625 -136.269531 35.90625 -133.34375 L 35.90625 -87.671875 C 44.207031 -96.140625 55.679688 -100.375 70.328125 -100.375 C 78.960938 -100.375 86.863281 -96.789062 94.03125 -89.625 C 101.1875 -82.457031 104.765625 -73.910156 104.765625 -63.984375 Z M 104.765625 -10.75 "/></g></g></g><g fill="#0cc0df" fill-opacity="1"><g transform="translate(1243.226363, 252.41255)"><g><path d="M 79.125 -10.5 C 70.988281 -2.519531 59.429688 1.46875 44.453125 1.46875 L 41.515625 1.46875 C 40.046875 1.46875 38.335938 1.304688 36.390625 0.984375 C 34.273438 0.648438 31.585938 -0.164062 28.328125 -1.46875 C 25.066406 -2.769531 22.132812 -4.5625 19.53125 -6.84375 C 16.925781 -8.957031 14.648438 -12.128906 12.703125 -16.359375 C 10.742188 -20.597656 9.765625 -25.566406 9.765625 -31.265625 C 9.765625 -39.890625 12.535156 -47.050781 18.078125 -52.75 C 23.609375 -58.289062 31.664062 -61.0625 42.25 -61.0625 C 56.414062 -61.0625 68.707031 -57.722656 79.125 -51.046875 L 79.125 -59.09375 C 79.125 -65.9375 76.601562 -71.226562 71.5625 -74.96875 C 66.34375 -78.550781 56.898438 -80.34375 43.234375 -80.34375 C 38.992188 -80.34375 34.1875 -79.851562 28.8125 -78.875 C 26.207031 -78.875 24.007812 -79.769531 22.21875 -81.5625 C 20.425781 -83.195312 19.53125 -85.394531 19.53125 -88.15625 C 19.53125 -93.207031 21.8125 -96.300781 26.375 -97.4375 C 33.050781 -99.394531 41.757812 -100.375 52.5 -100.375 C 67.644531 -100.375 79.453125 -96.875 87.921875 -89.875 C 96.222656 -82.875 100.375 -72.859375 100.375 -59.828125 L 100.375 -10.5 C 100.375 -7.570312 99.316406 -5.128906 97.203125 -3.171875 C 95.085938 -1.054688 92.5625 0 89.625 0 C 86.695312 0 84.253906 -1.054688 82.296875 -3.171875 C 80.179688 -5.128906 79.125 -7.570312 79.125 -10.5 Z M 79.125 -33.703125 C 73.101562 -39.398438 64.3125 -42.25 52.75 -42.25 C 44.125 -42.25 38.34375 -41.269531 35.40625 -39.3125 C 32.476562 -37.363281 31.015625 -34.4375 31.015625 -30.53125 C 31.015625 -22.550781 38.257812 -18.5625 52.75 -18.5625 C 58.769531 -18.5625 63.976562 -19.375 68.375 -21 C 72.769531 -22.46875 75.703125 -23.9375 77.171875 -25.40625 L 79.125 -27.84375 Z M 79.125 -33.703125 "/></g></g></g><g fill="#0cc0df" fill-opacity="1"><g transform="translate(1357.033971, 252.41255)"><g><path d="M 70.09375 -19.046875 C 72.695312 -19.046875 74.734375 -18.148438 76.203125 -16.359375 C 77.660156 -14.410156 78.390625 -11.96875 78.390625 -9.03125 C 78.390625 -6.269531 77.660156 -3.910156 76.203125 -1.953125 C 74.734375 0.00390625 72.695312 0.984375 70.09375 0.984375 L 57.640625 0.984375 C 50.304688 0.984375 44.195312 -0.15625 39.3125 -2.4375 C 34.4375 -4.550781 30.859375 -7.644531 28.578125 -11.71875 C 26.128906 -15.625 24.5 -19.773438 23.6875 -24.171875 C 22.707031 -28.410156 22.21875 -33.378906 22.21875 -39.078125 L 22.21875 -79.125 L 12.453125 -79.125 C 9.847656 -79.125 7.894531 -80.019531 6.59375 -81.8125 C 5.289062 -83.601562 4.640625 -85.800781 4.640625 -88.40625 C 4.640625 -90.851562 5.78125 -93.378906 8.0625 -95.984375 L 35.171875 -127.71875 C 37.453125 -130 39.242188 -131.140625 40.546875 -131.140625 C 42.816406 -131.140625 43.953125 -129.921875 43.953125 -127.484375 L 43.953125 -98.90625 L 70.328125 -98.90625 C 75.703125 -98.90625 78.390625 -95.566406 78.390625 -88.890625 C 78.390625 -86.128906 77.738281 -83.851562 76.4375 -82.0625 C 74.976562 -80.101562 72.941406 -79.125 70.328125 -79.125 L 43.953125 -79.125 L 43.953125 -39.8125 C 43.953125 -30.53125 45.253906 -24.75 47.859375 -22.46875 C 50.472656 -20.1875 55.765625 -19.046875 63.734375 -19.046875 Z M 70.09375 -19.046875 "/></g></g></g><g clip-path="url(#c1a1a831b2)"><path fill="#ffffff" d="M 160.699219 31.898438 C 231.171875 31.898438 288.300781 89.027344 288.300781 159.5 C 288.300781 179.726562 283.605469 198.8125 275.261719 215.769531 C 272.964844 220.433594 272.132812 225.882812 273.242188 231.296875 L 283.855469 283.007812 L 230.058594 272.941406 C 224.898438 271.976562 219.734375 272.765625 215.269531 274.882812 C 198.742188 282.710938 180.257812 287.101562 160.699219 287.101562 C 90.230469 287.101562 33.101562 229.972656 33.101562 159.5 C 33.101562 89.027344 90.230469 31.898438 160.699219 31.898438 Z M 320.199219 159.5 C 320.199219 71.410156 248.789062 0 160.699219 0 C 72.609375 0 1.199219 71.410156 1.199219 159.5 C 1.199219 247.589844 72.609375 319 160.699219 319 C 184.195312 319 206.539062 313.910156 226.664062 304.761719 L 289.652344 316.546875 C 306.359375 319.671875 320.90625 304.867188 317.488281 288.21875 L 305.023438 227.484375 C 314.761719 206.839844 320.199219 183.785156 320.199219 159.5 Z M 320.199219 159.5 " fill-opacity="1" fill-rule="evenodd"/></g><path fill="#ffffff" d="M 49.050781 159.5 C 49.050781 141.882812 63.332031 127.601562 80.949219 127.601562 C 98.566406 127.601562 112.851562 141.882812 112.851562 159.5 C 112.851562 177.117188 98.566406 191.402344 80.949219 191.402344 C 63.332031 191.402344 49.050781 177.117188 49.050781 159.5 Z M 49.050781 159.5 " fill-opacity="1" fill-rule="evenodd"/><path fill="#ffffff" d="M 128.800781 159.5 C 128.800781 141.882812 143.082031 127.601562 160.699219 127.601562 C 178.320312 127.601562 192.601562 141.882812 192.601562 159.5 C 192.601562 177.117188 178.320312 191.402344 160.699219 191.402344 C 143.082031 191.402344 128.800781 177.117188 128.800781 159.5 Z M 128.800781 159.5 " fill-opacity="1" fill-rule="evenodd"/><path fill="#ffffff" d="M 208.550781 159.5 C 208.550781 141.882812 222.832031 127.601562 240.449219 127.601562 C 258.070312 127.601562 272.351562 141.882812 272.351562 159.5 C 272.351562 177.117188 258.070312 191.402344 240.449219 191.402344 C 222.832031 191.402344 208.550781 177.117188 208.550781 159.5 Z M 208.550781 159.5 " fill-opacity="1" fill-rule="evenodd"/><g clip-path="url(#508611f17a)"><path fill="#0cc0df" d="M 160.699219 41.808594 C 225.699219 41.808594 278.390625 94.5 278.390625 159.5 C 278.390625 178.15625 274.0625 195.761719 266.363281 211.398438 C 264.246094 215.703125 263.480469 220.730469 264.503906 225.722656 L 274.292969 273.417969 L 224.671875 264.132812 C 219.914062 263.242188 215.148438 263.96875 211.03125 265.921875 C 195.789062 273.144531 178.738281 277.191406 160.699219 277.191406 C 95.699219 277.191406 43.007812 224.5 43.007812 159.5 C 43.007812 94.5 95.699219 41.808594 160.699219 41.808594 Z M 307.816406 159.5 C 307.816406 78.25 241.949219 12.382812 160.699219 12.382812 C 79.449219 12.382812 13.582031 78.25 13.582031 159.5 C 13.582031 240.75 79.449219 306.613281 160.699219 306.613281 C 182.371094 306.613281 202.980469 301.921875 221.539062 293.480469 L 279.640625 304.351562 C 295.046875 307.234375 308.464844 293.582031 305.3125 278.222656 L 293.816406 222.203125 C 302.800781 203.164062 307.816406 181.898438 307.816406 159.5 Z M 307.816406 159.5 " fill-opacity="1" fill-rule="evenodd"/></g><path fill="#0cc0df" d="M 57.71875 159.5 C 57.71875 143.25 70.890625 130.074219 87.140625 130.074219 C 103.390625 130.074219 116.566406 143.25 116.566406 159.5 C 116.566406 175.75 103.390625 188.921875 87.140625 188.921875 C 70.890625 188.921875 57.71875 175.75 57.71875 159.5 Z M 57.71875 159.5 " fill-opacity="1" fill-rule="evenodd"/><path fill="#0cc0df" d="M 131.277344 159.5 C 131.277344 143.25 144.449219 130.074219 160.699219 130.074219 C 176.949219 130.074219 190.121094 143.25 190.121094 159.5 C 190.121094 175.75 176.949219 188.921875 160.699219 188.921875 C 144.449219 188.921875 131.277344 175.75 131.277344 159.5 Z M 131.277344 159.5 " fill-opacity="1" fill-rule="evenodd"/><path fill="#0cc0df" d="M 204.832031 159.5 C 204.832031 143.25 218.007812 130.074219 234.257812 130.074219 C 250.507812 130.074219 263.679688 143.25 263.679688 159.5 C 263.679688 175.75 250.507812 188.921875 234.257812 188.921875 C 218.007812 188.921875 204.832031 175.75 204.832031 159.5 Z M 204.832031 159.5 " fill-opacity="1" fill-rule="evenodd"/></svg>